<svg width="24" height="24" viewBox="0 0 24 24" fill="none" xmlns="http://www.w3.org/2000/svg">
<path d="M11.9258 1.92971C11.2784 1.94723 10.6579 2.19279 10.1738 2.62307L3.17383 8.84377C2.88341 9.10196 2.65095 9.41871 2.49172 9.77318C2.3325 10.1277 2.25012 10.5118 2.25 10.9004V20C2.25079 20.7291 2.54078 21.4281 3.05633 21.9437C3.57189 22.4592 4.2709 22.7492 5 22.75H8H16H19C19.7291 22.7492 20.4281 22.4592 20.9437 21.9437C21.4592 21.4281 21.7492 20.7291 21.75 20V10.9004C21.7499 10.5121 21.6675 10.1282 21.5082 9.77409C21.349 9.41994 21.1165 9.10354 20.8262 8.84573L13.8262 2.62307C13.3039 2.1588 12.6243 1.91088 11.9258 1.92971ZM12 3.4258C12.3064 3.42624 12.6019 3.53958 12.8301 3.74416L19.8301 9.96682C19.9619 10.0841 20.0674 10.2278 20.1398 10.3887C20.2122 10.5496 20.2497 10.724 20.25 10.9004V20C20.2495 20.3314 20.1176 20.649 19.8833 20.8833C19.649 21.1176 19.3314 21.2495 19 21.25H16.75V16C16.7495 15.2708 16.4596 14.5717 15.944 14.0561C15.4283 13.5405 14.7292 13.2506 14 13.25H10C9.27082 13.2506 8.57165 13.5405 8.05604 14.0561C7.54043 14.5717 7.25053 15.2708 7.25 16V21.25H5C4.66898 21.249 4.35185 21.1169 4.11796 20.8826C3.88408 20.6484 3.75248 20.331 3.75195 20V10.8985C3.75198 10.7222 3.78922 10.5479 3.86125 10.387C3.93327 10.2261 4.03846 10.0823 4.16992 9.96487L11.1699 3.74221C11.3981 3.53801 11.6938 3.42533 12 3.4258ZM10 14.75H14C14.3314 14.7506 14.649 14.8824 14.8833 15.1167C15.1176 15.351 15.2495 15.6687 15.25 16V21.25H8.75V16C8.75053 15.6687 8.8824 15.351 9.1167 15.1167C9.35101 14.8824 9.66864 14.7506 10 14.75Z" fill="#828282"/>
</svg>
