<svg width="96" height="70" viewBox="0 0 96 70" fill="none" xmlns="http://www.w3.org/2000/svg">
<g clip-path="url(#clip0_5_2419)">
<path d="M19.0175 10.4457L15.017 14.4462L19.0175 18.4467L23.018 14.4462L19.0175 10.4457Z" fill="#EB5340"/>
<path d="M19.0163 18.4337L15.0158 22.4342L19.0163 26.4346L23.0167 22.4342L19.0163 18.4337Z" fill="#EB5340"/>
<path d="M95.6203 55.0426L90.037 54.1294L89.1238 59.7127L94.7072 60.6259L95.6203 55.0426Z" fill="#AAAAAA"/>
<path d="M89.1332 59.7064L83.5499 58.7932L82.6367 64.3766L88.22 65.2897L89.1332 59.7064Z" fill="#AAAAAA"/>
<path d="M48.0338 30.4615L65.358 42.8216L70.7279 38.2486L72.8674 35.5291L48.0338 17.8122V30.4615Z" stroke="#AAAAAA" stroke-width="0.22" stroke-miterlimit="2.61"/>
<path fill-rule="evenodd" clip-rule="evenodd" d="M72.8395 0.0558685L47.324 18.2493L47.3042 18.2641V18.5056V30.0359L47.3256 30.0507L63.9219 41.857L53.0045 49.6491L52.9831 49.6638V53.1408L53.0603 53.085L70.0838 40.9369V46.7538L50.1568 60.9838V37.6077C50.1698 36.8457 49.8857 36.1085 49.3648 35.5521C48.8453 35.0174 48.1382 34.7057 47.393 34.6829H16.5503L16.2216 34.6911C14.4815 34.7289 12.4636 34.7716 10.919 34.4019C8.99936 33.9162 7.30065 32.7949 6.09955 31.2207C4.99204 29.7582 4.30683 27.8735 4.29204 25.6338C4.31769 23.8218 4.90567 22.0624 5.97467 20.5991C7.07246 19.1052 8.58745 17.9692 10.3291 17.334L10.3603 17.3225V16.3383L10.2946 16.3629C7.3458 17.5049 4.80332 19.4983 2.99063 22.0894C1.19342 24.6374 0.208248 27.6691 0.164338 30.7869C0.101897 34.4019 1.16833 37.7474 3.13523 40.4587C5.08241 43.1437 7.91199 45.2026 11.4005 46.2756C12.1878 46.5054 12.9906 46.6778 13.8028 46.7915C14.6821 46.9268 15.569 47.0069 16.4582 47.0315H44.4648V44.2019H16.4057C16.1378 44.2019 15.8092 44.1739 15.4395 44.1378C15.0697 44.1016 14.6458 44.0507 14.2103 43.9866C13.8291 43.9291 13.4528 43.8634 13.1061 43.7894C12.7775 43.7221 12.4899 43.6481 12.2352 43.5692C10.8656 43.1541 9.57011 42.5253 8.39673 41.7059C6.17705 40.154 4.51919 37.9254 3.67091 35.3533C3.2773 34.1597 3.05274 32.9169 3.00377 31.661C3.11223 31.8533 3.22561 32.0406 3.34392 32.2246C3.50166 32.4678 3.66598 32.7034 3.83687 32.9312C4.61734 33.9614 5.56821 34.8506 6.64838 35.5603C7.74326 36.2805 8.95058 36.8131 10.2207 37.1362L10.2634 37.1477C12.1613 37.6028 14.3714 37.5552 16.2742 37.5141H16.6028H47.2944V37.6176V63.6343C47.2813 63.9159 47.3413 64.1961 47.4686 64.4476C47.5979 64.6881 47.7928 64.8869 48.0305 65.0211C48.3429 65.1899 48.7082 65.2322 49.051 65.1394C49.3728 65.0419 49.6687 64.8735 49.9169 64.6465L72.8904 48.2228L72.9118 48.208V48.1833V35.5028L72.8904 35.488L50.446 19.5063L50.6761 19.342L70.0789 5.50141V11.32L60.7127 18.0455L60.6913 18.0603V21.5373L60.7702 21.4815L72.897 12.7857L72.9183 12.7709V0L72.8395 0.0558685ZM70.4157 37.2183L66.3258 40.1366L50.1404 28.5915V22.7746L70.0986 36.9718L70.4157 37.2183Z" fill="#AAAAAA"/>
<path d="M75.7265 49.6869L92.934 37.4056L93.0129 37.3498V50.1174L92.9916 50.1322L72.5207 64.7894L72.4812 64.8223C72.1819 65.0775 71.794 65.2044 71.4017 65.1756C71.0396 65.1472 70.703 64.9786 70.4634 64.7056L70.4371 64.6744C70.4174 64.6514 70.3977 64.6284 70.3796 64.6038C70.1723 64.3247 70.0763 63.9786 70.1101 63.6326C70.1466 63.2618 70.3264 62.9198 70.6113 62.6796C70.6376 62.6549 70.6671 62.6319 70.6967 62.6089L72.8181 61.0906L72.897 61.0347L90.1718 48.6599V42.843L75.7824 53.1129L75.7035 53.1688V49.7016L75.7265 49.6869Z" fill="#AAAAAA"/>
<path d="M83.3263 37.307L83.3033 8.7993L78.5479 12.2139L78.5561 31.3768V31.4014L78.5364 31.4162L75.8087 33.3683L75.7315 33.4242V33.3272L75.72 10.7892V10.7646L75.7397 10.7498L86.0491 3.34554L86.1263 3.28967V3.38662L86.1542 38.7333V38.758L86.1345 38.7728L75.8251 46.1359L75.7479 46.1918V46.0965L75.7446 42.7345V42.7099L75.766 42.6951L78.4937 40.7791L83.3263 37.307Z" fill="#AAAAAA"/>
<path d="M82.6367 64.3777L77.0533 63.4645L76.1402 69.0479L81.7235 69.961L82.6367 64.3777Z" fill="#AAAAAA"/>
<path d="M52.9765 65.9134L72.8082 51.7934L72.8854 51.7376V51.8329V55.1899V55.2146L72.8657 55.2293L70.1249 57.1848L53.034 69.3493L52.9568 69.4052V69.3099V65.9528V65.9282L52.9765 65.9134Z" fill="#EB5340"/>
</g>
<defs>
<clipPath id="clip0_5_2419">
<rect width="95.6338" height="70" fill="white"/>
</clipPath>
</defs>
</svg>
