<svg width="112" height="34" viewBox="0 0 112 34" fill="none" xmlns="http://www.w3.org/2000/svg">
<path d="M12.1529 24.288C8.56887 24.288 6.03021 23.68 4.53687 22.464C3.06487 21.248 2.32887 19.5093 2.32887 17.248C2.32887 16.5653 2.36087 15.6373 2.42487 14.464C2.51021 13.2907 2.60621 12.2773 2.71287 11.424L5.81687 11.68L5.78487 12.352C5.65687 14.016 5.59287 15.3173 5.59287 16.256C5.59287 17.0027 5.78487 17.5787 6.16887 17.984C6.57421 18.368 7.31021 18.656 8.37687 18.848C9.46487 19.04 11.0649 19.136 13.1769 19.136C14.8835 19.136 16.6329 19.0613 18.4249 18.912C20.2169 18.7413 21.7635 18.5067 23.0649 18.208L22.7449 11.456L26.6809 11.136V17.216C26.6809 18.4533 26.4782 19.5093 26.0729 20.384C25.6675 21.2373 24.9955 21.92 24.0569 22.432C22.6275 23.2 20.8569 23.7013 18.7449 23.936C16.6542 24.1707 14.4569 24.288 12.1529 24.288ZM30.2649 24C29.2409 24 28.2915 23.9253 27.4169 23.776C26.5635 23.6053 25.7635 23.168 25.0169 22.464C24.2915 21.7387 23.9289 20.6187 23.9289 19.104V13.184H26.6809V16.736C26.6809 17.5893 26.9582 18.1547 27.5129 18.432C28.0675 18.7093 28.9849 18.848 30.2649 18.848L30.5849 19.168V23.68L30.2649 24ZM14.7769 8.608V12.48H10.0729V8.608H14.7769ZM18.6809 8.608V12.48H13.9769V8.608H18.6809ZM29.8446 18.848H31.1886C33.4286 18.848 34.9646 18.816 35.7966 18.752C36.65 18.688 37.1406 18.656 37.2686 18.656V16.224C37.2686 15.6907 37.2046 15.2853 37.0766 15.008C36.9486 14.7307 36.65 14.4427 36.1806 14.144C34.73 13.248 33.034 12.2347 31.0926 11.104L32.0206 4.896L42.9646 1.28L42.5166 5.792L34.7086 8.16L35.6046 8.672C37.0553 9.54667 38.1113 10.2933 38.7726 10.912C39.4553 11.5093 39.946 12.2453 40.2446 13.12C40.5433 13.9733 40.6926 15.168 40.6926 16.704V18.592C40.6926 20.1067 40.2446 21.2587 39.3486 22.048C38.4526 22.8373 37.2366 23.36 35.7006 23.616C34.186 23.872 32.234 24 29.8446 24V18.848ZM51.4414 24C49.9694 24 48.7534 23.8827 47.7934 23.648C46.8334 23.392 46.0334 22.8587 45.3934 22.048C44.7534 21.216 44.412 19.9787 44.3694 18.336L43.9214 2.592L47.8254 2.24V17.504C47.8254 17.888 47.9107 18.176 48.0814 18.368C48.2734 18.5387 48.6147 18.6667 49.1054 18.752C49.596 18.816 50.3747 18.848 51.4414 18.848L51.7614 19.168V23.68L51.4414 24ZM51.0286 18.848C52.01 18.848 53.0233 18.8267 54.0686 18.784C55.114 18.72 55.8713 18.624 56.3406 18.496L55.9886 10.208L59.9886 10.016V17.664C59.9886 20.0747 59.1993 21.7387 57.6206 22.656C56.042 23.552 53.8446 24 51.0286 24V18.848ZM55.5406 26.56H60.0206V30.208H55.5406V26.56ZM53.6526 30.208H57.3966V33.408H53.6526V30.208ZM51.0286 26.56H55.5406V30.208H51.0286V26.56Z" fill="white"/>
<g clip-path="url(#clip0_509_300)">
<path d="M77.8425 0C75.3232 -9.94402e-07 74 1.5322 74 3.82961V24.1704C74 26.4678 75.3232 28 77.8425 28H107.573C110.093 28 111.416 26.4678 111.416 24.1704V3.82961C111.416 1.5322 110.093 -4.97201e-07 107.573 0H77.8425Z" fill="#D9D6CC"/>
<path d="M78.1459 1.56998C76.1517 1.56998 75.5578 2.76105 75.5578 4.24059V13.9772L84.3585 13.9934C86.7097 13.9977 87.6724 14.9405 88.6521 16.2596C88.9017 16.5955 89.2052 17.0508 89.5016 17.3465C90.3867 18.2294 91.5473 18.6705 92.708 18.6705C93.8686 18.6705 95.0293 18.2294 95.9143 17.3465C96.2107 17.0508 96.5143 16.5955 96.7638 16.2596C97.7435 14.9405 98.7063 13.9977 101.057 13.9934L109.858 13.9772V4.24059C109.858 2.76105 109.264 1.56998 107.27 1.56998H78.1459Z" fill="#895FFF"/>
<path d="M78.1459 1.56998C76.1517 1.56998 75.5578 2.76105 75.5578 4.24059V7.36006C75.5578 5.88052 76.1517 4.68945 78.1459 4.68945H107.27C109.264 4.68945 109.858 5.88052 109.858 7.36006V4.24059C109.858 2.76105 109.264 1.56998 107.27 1.56998H78.1459Z" fill="#643BD9"/>
<mask id="mask0_509_300" style="mask-type:luminance" maskUnits="userSpaceOnUse" x="75" y="1" width="35" height="7">
<path d="M78.1459 1.56998C76.1517 1.56998 75.5578 2.76105 75.5578 4.24059V7.36006C75.5578 5.88052 76.1517 4.68945 78.1459 4.68945H107.27C109.264 4.68945 109.858 5.88052 109.858 7.36006V4.24059C109.858 2.76105 109.264 1.56998 107.27 1.56998H78.1459Z" fill="white"/>
</mask>
<g mask="url(#mask0_509_300)">
<g filter="url(#filter0_f_509_300)">
<path d="M78.1459 4.68945C76.1517 4.68945 75.5578 5.88052 75.5578 7.36006V10.4795C75.5578 8.99999 76.1517 7.80892 78.1459 7.80892H107.27C109.264 7.80892 109.858 8.99999 109.858 10.4795V7.36006C109.858 5.88052 109.264 4.68945 107.27 4.68945H78.1459Z" fill="black" fill-opacity="0.317757"/>
</g>
</g>
<path d="M78.1459 4.68944C76.1517 4.68944 75.5578 5.88051 75.5578 7.36005V10.4795C75.5578 8.99998 76.1517 7.80891 78.1459 7.80891H107.27C109.264 7.80891 109.858 8.99998 109.858 10.4795V7.36005C109.858 5.88051 109.264 4.68944 107.27 4.68944H78.1459Z" fill="#6F43EA"/>
<mask id="mask1_509_300" style="mask-type:luminance" maskUnits="userSpaceOnUse" x="75" y="4" width="35" height="7">
<path d="M78.1459 4.68944C76.1517 4.68944 75.5578 5.88051 75.5578 7.36005V10.4795C75.5578 8.99998 76.1517 7.80891 78.1459 7.80891H107.27C109.264 7.80891 109.858 8.99998 109.858 10.4795V7.36005C109.858 5.88051 109.264 4.68944 107.27 4.68944H78.1459Z" fill="white"/>
</mask>
<g mask="url(#mask1_509_300)">
<g filter="url(#filter1_f_509_300)">
<path d="M78.1459 7.80891C76.1517 7.80891 75.5578 8.99998 75.5578 10.4795V13.599C75.5578 12.1195 76.1517 10.9284 78.1459 10.9284H107.27C109.264 10.9284 109.858 12.1195 109.858 13.599V10.4795C109.858 8.99998 109.264 7.80891 107.27 7.80891H78.1459Z" fill="black" fill-opacity="0.313725"/>
</g>
</g>
<path d="M78.1459 7.80891C76.1517 7.80891 75.5578 8.99998 75.5578 10.4795V13.599C75.5578 12.1195 76.1517 10.9284 78.1459 10.9284H107.27C109.264 10.9284 109.858 12.1195 109.858 13.599V10.4795C109.858 8.99998 109.264 7.80891 107.27 7.80891H78.1459Z" fill="#7749F8"/>
<mask id="mask2_509_300" style="mask-type:luminance" maskUnits="userSpaceOnUse" x="75" y="7" width="35" height="7">
<path d="M78.1459 7.80891C76.1517 7.80891 75.5578 8.99998 75.5578 10.4795V13.599C75.5578 12.1195 76.1517 10.9284 78.1459 10.9284H107.27C109.264 10.9284 109.858 12.1195 109.858 13.599V10.4795C109.858 8.99998 109.264 7.80891 107.27 7.80891H78.1459Z" fill="white"/>
</mask>
<g mask="url(#mask2_509_300)">
<g filter="url(#filter2_f_509_300)">
<path d="M78.1459 10.9284C76.1517 10.9284 75.5578 12.1195 75.5578 13.599V16.7185C75.5578 15.2389 76.1517 14.0479 78.1459 14.0479H107.27C109.264 14.0479 109.858 15.2389 109.858 16.7185V13.599C109.858 12.1195 109.264 10.9284 107.27 10.9284H78.1459Z" fill="black" fill-opacity="0.313725"/>
</g>
</g>
<mask id="mask3_509_300" style="mask-type:luminance" maskUnits="userSpaceOnUse" x="75" y="10" width="35" height="9">
<path d="M78.1459 10.9284C76.1517 10.9284 75.5578 12.1194 75.5578 13.599V13.9772L84.3585 13.9934C86.7097 13.9977 87.6724 14.9405 88.6521 16.2595C88.9017 16.5955 89.2052 17.0508 89.5016 17.3465C90.3867 18.2294 91.5473 18.6705 92.708 18.6705C93.8686 18.6705 95.0293 18.2294 95.9143 17.3465C96.2107 17.0508 96.5143 16.5955 96.7638 16.2595C97.7435 14.9405 98.7063 13.9977 101.057 13.9934L109.858 13.9772V13.599C109.858 12.1194 109.264 10.9284 107.27 10.9284H78.1459Z" fill="white"/>
</mask>
<g mask="url(#mask3_509_300)">
<g filter="url(#filter3_f_509_300)">
<path d="M77.8425 0C75.3232 -9.94402e-07 74 1.5322 74 3.82961V24.1704C74 26.4678 75.3232 28 77.8425 28H107.573C110.093 28 111.416 26.4678 111.416 24.1704V3.82961C111.416 1.5322 110.093 -4.97201e-07 107.573 0H77.8425ZM78.1459 1.56997H107.27C109.264 1.56997 109.858 2.76104 109.858 4.24058V13.9772L101.057 13.9934C98.7063 13.9977 97.7435 14.9405 96.7638 16.2595C96.5143 16.5955 96.2107 17.0508 95.9143 17.3465C95.0293 18.2294 93.8686 18.6705 92.708 18.6705C91.5473 18.6705 90.3867 18.2294 89.5016 17.3465C89.2052 17.0508 88.9017 16.5955 88.6521 16.2595C87.6724 14.9405 86.7097 13.9977 84.3585 13.9934L75.5578 13.9772V4.24058C75.5578 2.76104 76.1517 1.56997 78.1459 1.56997Z" fill="#895FFF" fill-opacity="0.298039"/>
</g>
</g>
<path d="M74 11.6916H75.5578V13.9772H74V11.6916Z" fill="url(#paint0_linear_509_300)"/>
<path d="M109.858 11.6916H111.416V13.9772H109.858V11.6916Z" fill="url(#paint1_linear_509_300)"/>
</g>
<defs>
<filter id="filter0_f_509_300" x="48.6238" y="-22.2446" width="88.1683" height="59.6581" filterUnits="userSpaceOnUse" color-interpolation-filters="sRGB">
<feFlood flood-opacity="0" result="BackgroundImageFix"/>
<feBlend mode="normal" in="SourceGraphic" in2="BackgroundImageFix" result="shape"/>
<feGaussianBlur stdDeviation="13.467" result="effect1_foregroundBlur_509_300"/>
</filter>
<filter id="filter1_f_509_300" x="48.6238" y="-19.1251" width="88.1683" height="59.6581" filterUnits="userSpaceOnUse" color-interpolation-filters="sRGB">
<feFlood flood-opacity="0" result="BackgroundImageFix"/>
<feBlend mode="normal" in="SourceGraphic" in2="BackgroundImageFix" result="shape"/>
<feGaussianBlur stdDeviation="13.467" result="effect1_foregroundBlur_509_300"/>
</filter>
<filter id="filter2_f_509_300" x="48.6238" y="-16.0056" width="88.1683" height="59.6581" filterUnits="userSpaceOnUse" color-interpolation-filters="sRGB">
<feFlood flood-opacity="0" result="BackgroundImageFix"/>
<feBlend mode="normal" in="SourceGraphic" in2="BackgroundImageFix" result="shape"/>
<feGaussianBlur stdDeviation="13.467" result="effect1_foregroundBlur_509_300"/>
</filter>
<filter id="filter3_f_509_300" x="40.5146" y="-33.4854" width="104.387" height="94.9708" filterUnits="userSpaceOnUse" color-interpolation-filters="sRGB">
<feFlood flood-opacity="0" result="BackgroundImageFix"/>
<feBlend mode="normal" in="SourceGraphic" in2="BackgroundImageFix" result="shape"/>
<feGaussianBlur stdDeviation="16.7427" result="effect1_foregroundBlur_509_300"/>
</filter>
<linearGradient id="paint0_linear_509_300" x1="74" y1="13.9772" x2="74" y2="12.7925" gradientUnits="userSpaceOnUse">
<stop stop-color="#CBC9BE"/>
<stop offset="1" stop-color="#C8C5BB" stop-opacity="0"/>
</linearGradient>
<linearGradient id="paint1_linear_509_300" x1="109.858" y1="13.9772" x2="109.858" y2="12.7925" gradientUnits="userSpaceOnUse">
<stop stop-color="#CBC9BE"/>
<stop offset="1" stop-color="#C8C5BB" stop-opacity="0"/>
</linearGradient>
<clipPath id="clip0_509_300">
<rect width="37.4159" height="28" fill="white" transform="translate(74)"/>
</clipPath>
</defs>
</svg>
